<svg width="392.102" height="401.843" xmlns="http://www.w3.org/2000/svg"><g fill="#fff" stroke="#000" paint-order="stroke fill markers" transform="translate(-59.949 -55.078)"><path d="M310.558 153.656c0 37.874-21.78 68.578-48.648 68.578-26.867 0-48.647-30.704-48.647-68.578s21.78-68.578 48.647-68.578c26.868 0 48.648 30.704 48.648 68.578zm-70.576-12.523c22.262 30.641 22.689 68.283.952 84.075-21.736 15.793-57.404 3.755-79.666-26.886-22.262-30.64-22.688-68.282-.952-84.075 21.737-15.792 57.404-3.755 79.666 26.886zm-64.457 31.353c36.02 11.704 58.49 41.906 50.188 67.458-8.303 25.553-44.234 36.78-80.255 25.076-36.02-11.704-58.49-41.906-50.188-67.459 8.303-25.552 44.234-36.78 80.255-25.075zm-33.72 63.252c36.021-11.704 71.952-.477 80.255 25.075 8.302 25.553-14.168 55.755-50.188 67.459-36.021 11.704-71.952.477-80.255-25.076-8.302-25.552 14.168-55.754 50.189-67.458zm9.9 70.991c22.262-30.64 57.93-42.678 79.666-26.885 21.736 15.792 21.31 53.434-.952 84.075-22.262 30.64-57.93 42.678-79.666 26.885-21.736-15.792-21.31-53.434.952-84.075zm49.737 51.615c0-37.874 21.78-68.578 48.648-68.578 26.867 0 48.647 30.704 48.647 68.578s-21.78 68.578-48.647 68.578c-26.868 0-48.648-30.704-48.648-68.578zm70.576 12.523c-22.262-30.641-22.689-68.283-.952-84.075 21.736-15.793 57.404-3.755 79.666 26.886 22.262 30.64 22.688 68.282.952 84.075-21.737 15.792-57.404 3.755-79.666-26.886zm64.457-31.353c-36.02-11.704-58.49-41.906-50.188-67.458 8.303-25.553 44.234-36.78 80.255-25.076 36.02 11.704 58.49 41.906 50.188 67.459-8.303 25.552-44.234 36.78-80.255 25.075zm33.72-63.252c-36.021 11.704-71.952.477-80.255-25.075-8.302-25.553 14.168-55.755 50.188-67.459 36.021-11.704 71.952-.477 80.255 25.076 8.302 25.552-14.168 55.754-50.189 67.458zm-9.9-70.991c-22.262 30.64-57.93 42.678-79.666 26.885-21.736-15.792-21.31-53.434.952-84.075 22.262-30.64 57.93-42.678 79.666-26.885 21.736 15.792 21.31 53.434-.952 84.075z" stroke-width="59.999"/><circle cx="256" cy="256" r="50" stroke-width="60"/></g></svg>